{"title":"Leonard.Cohen.Songs.From.The.Road.HDTV.XviD.AC3.2010","uid":10033664,"size":4357118373,"categoryP":"video","categoryS":"hd___movies","magnet":"?xt=urn:btih:dfb8eeb05b510479bafa5808c8df31bc071a8bb6&amp;dn=Leonard.Cohen.Songs.From.The.Road.HDTV.XviD.AC3.2010&amp;tr=udp%3A%2F%2Ftracker.openbittorrent.com%3A80&amp;tr=udp%3A%2F%2Fopen.demonii.com%3A1337&amp;tr=udp%3A%2F%2Ftracker.coppersurfer.tk%3A6969&amp;tr=udp%3A%2F%2Fexodus.desync.com%3A6969","seeders":2,"leechers":0,"uploader":"user101966","files":4,"time":1398371562,"description":"I doubt much can be said about Leonard Cohen that would come close to describing something like &quot;who he is&quot;. \n\n*Who he is* is probably most accurately self-described in his art; in his poetry. Much of which is simply inaccessible to anyone who hasn't studied his work intensely and from the beginning. The reason being that the references he chooses happen to be the ones he's been working with for a long time, and almost nobody knows any of them. And you won't be able to figure them out by listening to the lyrics.\n\nFor instance, in Ten New Songs, one might think that a song entitled &quot;Alexandra leaving&quot; is speaking about a woman perhaps leaving someone for some reason. But in actual fact &quot;Alexandra&quot; in that song alludes to Alexandria, the ancient (and destroyed) &quot;city of enlightenment&quot;, and so what &quot;Alexandria leaving&quot; could possibly represent (since cities don't normally &quot;leave&quot;) is a kind of mystery.\n\nCohen is largely concerned with ancient times. For example figures like Dante play a key role in his lyrics. Often he is answering a question of Dante's (or another of the Great Ancients), or putting a new one forward. I suspect that &quot;Alexandria&quot;, for him, represents the arrogance of a belief in a rational, ordered world that can be understood. And, of course, all that comes with such a belief system. Alexandria may signify an *unwelcome* rejection of the mysterious and unfathomable nature of existence itself. In that light, the lyrics actually make some sense! \n\nBut I'm only guessing.\n\nAnyway, his music is great even if the lyrics are far far away.\n\nTrack List:\n01. Lover, Lover, Lover (Ramat Gan Stadium, Tel Aviv, Israel, September 24, 2009)\n02. Bird On The Wire (Clyde Auditorium, Glasgow, Scotland, November 6, 2008)\n03. Chelsea Hotel (Royal Albert Hall, London, England, November 17, 2008)\n04. Heart With No Companion (Oberhausen Arena, Oberhausen, Germany, November 2, 2008)\n05. That Don't Make It Junk (O2 Arena, London, England, November 13, 2008)\n06. Waiting For The Miracle (Hp Pavilion, San Jose, California, November 13, 2009)\n07. Avalanche (Gothenburg Scandinavium, Gothenburg, Sweden, October 12, 2008)\n08. Suzanne (Mena Arena, Manchester, England, November 30, 2008)\n09. The Partisan (Hartwall Arena, Helsinki, Finland, October 10, 2008)\n10. Famous Blue Raincoat (O2 Arena, London, England, November 13, 2008)\n11. Hallelujah (Coachella Music Festival, Indio, California, April 17, 2009)\n12. Closing Time (John Labatt Centre, London, Ontario, May 24, 2009)\n\n71 minutes.\n\n****************************************************************\n****************************************************************\n\nVideo info:\nGeneral\nComplete name                            : Leonard Cohen - Songs From The Road.avi\nFormat                                   : AVI\nFormat/Info                              : Audio Video Interleave\nFormat profile                           : OpenDML\nFile size                                : 3.14 GiB\nDuration                                 : 1h 11mn\nOverall bit rate                         : 6 250 Kbps\nWriting application                      : MEncoder r33883\nWriting library                          : VirtualDub build 32842/release\n\nVideo\nID                                       : 0\nFormat                                   : MPEG-4 Visual\nFormat profile                           : Simple@L3\nFormat settings, BVOP                    : No\nFormat settings, QPel                    : No\nFormat settings, GMC                     : No warppoints\nFormat settings, Matrix                  : Default (H.263)\nCodec ID                                 : XVID\nCodec ID/Hint                            : XviD\nDuration                                 : 1h 11mn\nBit rate                                 : 5 789 Kbps\nWidth                                    : 1 280 pixels\nHeight                                   : 720 pixels\nDisplay aspect ratio                     : 16:9\nFrame rate                               : 29.970 fps\nColor space                              : YUV\nChroma subsampling                       : 4:2:0\nBit depth                                : 8 bits\nScan type                                : Progressive\nCompression mode                         : Lossy\nBits/(Pixel*Frame)                       : 0.210\nStream size                              : 2.91 GiB (93%)\nWriting library                          : XviD 63\n\nAudio\nID                                       : 1\nFormat                                   : AC-3\nFormat/Info                              : Audio Coding 3\nMode extension                           : CM (complete main)\nFormat settings, Endianness              : Big\nCodec ID                                 : 2000\nDuration                                 : 1h 11mn\nBit rate mode                            : Constant\nBit rate                                 : 448 Kbps\nChannel(s)                               : 6 channels\nChannel positions                        : Front: L C R, Side: L R, LFE\nSampling rate                            : 48.0 KHz\nBit depth                                : 16 bits\nCompression mode                         : Lossy\nStream size                              : 230 MiB (7%)\nAlignment                                : Split accross interleaves\nInterleave, duration                     : 33 ms (1.00 video frame)\nInterleave, preload duration             : 500 ms\n\n****************************************************************\n****************************************************************\n\nBackstage Sketch (bonus ad-on):\n21 minuten\n\nVideo info:\nGeneral\nComplete name                            : D:MusicVideoLeonard CohenSongs From The RoadBackstage Sketch.avi\nFormat                                   : AVI\nFormat/Info                              : Audio Video Interleave\nFile size                                : 943 MiB\nDuration                                 : 21mn 32s\nOverall bit rate                         : 6 117 Kbps\nWriting application                      : MEncoder r33883\nWriting library                          : VirtualDub build 32842/release\n\nVideo\nID                                       : 0\nFormat                                   : MPEG-4 Visual\nFormat profile                           : Simple@L3\nFormat settings, BVOP                    : No\nFormat settings, QPel                    : No\nFormat settings, GMC                     : No warppoints\nFormat settings, Matrix                  : Default (H.263)\nCodec ID                                 : XVID\nCodec ID/Hint                            : XviD\nDuration                                 : 21mn 32s\nBit rate                                 : 5 913 Kbps\nWidth                                    : 1 280 pixels\nHeight                                   : 720 pixels\nDisplay aspect ratio                     : 16:9\nFrame rate                               : 29.970 fps\nColor space                              : YUV\nChroma subsampling                       : 4:2:0\nBit depth                                : 8 bits\nScan type                                : Progressive\nCompression mode                         : Lossy\nBits/(Pixel*Frame)                       : 0.214\nStream size                              : 911 MiB (97%)\nWriting library                          : XviD 63\n\nAudio\nID                                       : 1\nFormat                                   : AC-3\nFormat/Info                              : Audio Coding 3\nMode extension                           : CM (complete main)\nFormat settings, Endianness              : Big\nCodec ID                                 : 2000\nDuration                                 : 21mn 32s\nBit rate mode                            : Constant\nBit rate                                 : 192 Kbps\nChannel(s)                               : 2 channels\nChannel positions                        : Front: L R\nSampling rate                            : 48.0 KHz\nBit depth                                : 16 bits\nCompression mode                         : Lossy\nStream size                              : 29.6 MiB (3%)\nAlignment                                : Split accross interleaves\nInterleave, duration                     : 33 ms (1.00 video frame)\nInterleave, preload duration             : 500 ms\n","torrent":{"xt":"urn:btih:dfb8eeb05b510479bafa5808c8df31bc071a8bb6","amp;dn":"Leonard.Cohen.Songs.From.The.Road.HDTV.XviD.AC3.2010","amp;tr":["udp%3A%2F%2Ftracker.openbittorrent.com%3A80","udp%3A%2F%2Fopen.demonii.com%3A1337","udp%3A%2F%2Ftracker.coppersurfer.tk%3A6969","udp%3A%2F%2Fexodus.desync.com%3A6969"],"infoHash":"dfb8eeb05b510479bafa5808c8df31bc071a8bb6","infoHashBuffer":{"type":"Buffer","data":[223,184,238,176,91,81,4,121,186,250,88,8,200,223,49,188,7,26,139,182]},"announce":[],"urlList":[]}}